<?xml version="1.0" standalone="no"?>
<!DOCTYPE svg PUBLIC "-//W3C//DTD SVG 20010904//EN"
 "http://www.w3.org/TR/2001/REC-SVG-20010904/DTD/svg10.dtd">
<svg version="1.0" xmlns="http://www.w3.org/2000/svg"
 width="91.000000pt" height="91.000000pt" viewBox="0 0 91.000000 91.000000"
 preserveAspectRatio="xMidYMid meet">
<metadata>
Created by potrace 1.14, written by Peter Selinger 2001-2017
</metadata>
<g transform="translate(0.000000,91.000000) scale(0.100000,-0.100000)"
fill="#000000" stroke="none">
<path d="M406 858 c-54 -49 -25 -128 47 -128 53 0 80 42 64 101 -6 24 -42 49
-72 49 -8 0 -25 -10 -39 -22z"/>
<path d="M253 699 c-12 -4 -29 -19 -39 -33 -45 -70 52 -151 111 -92 57 57 1
152 -72 125z"/>
<path d="M601 698 c-31 -11 -50 -37 -51 -68 0 -58 57 -93 109 -66 47 25 56 79
19 113 -31 27 -48 32 -77 21z"/>
<path d="M55 505 c-25 -24 -33 -68 -17 -91 11 -17 48 -34 76 -34 30 0 66 42
66 77 0 32 -42 73 -75 73 -14 0 -37 -11 -50 -25z"/>
<path d="M433 521 c-5 -3 -15 -15 -22 -26 l-13 -20 7 20 c4 14 3 17 -4 10 -16
-16 -27 -80 -13 -71 8 4 10 2 6 -8 -3 -9 2 -17 15 -21 12 -3 19 -11 15 -16 -9
-16 40 -5 70 15 15 9 25 20 22 23 -3 3 -1 14 4 23 7 13 5 21 -5 30 -8 7 -12
16 -9 21 3 5 4 9 2 9 -2 0 -17 4 -34 9 -17 5 -36 6 -41 2z m38 -18 c8 2 11 2
7 0 -15 -9 -8 -24 9 -21 10 2 19 -4 21 -14 2 -10 -1 -18 -7 -18 -6 0 -7 7 -4
17 4 11 3 14 -6 9 -7 -5 -20 -1 -30 8 -17 16 -18 14 -15 -39 l3 -54 -22 20
c-21 19 -21 21 -4 33 9 7 17 19 17 27 0 11 -2 11 -10 -1 -13 -21 -12 -6 2 25
6 15 14 21 18 15 4 -6 13 -9 21 -7z m-61 -43 c0 -5 -4 -10 -10 -10 -5 0 -10 5
-10 10 0 6 5 10 10 10 6 0 10 -4 10 -10z m100 -36 c0 -2 -11 2 -25 8 -14 6
-25 15 -25 20 0 5 11 1 25 -8 14 -9 25 -18 25 -20z m-20 -8 c0 -2 -7 -6 -15
-10 -8 -3 -15 -1 -15 4 0 6 7 10 15 10 8 0 15 -2 15 -4z"/>
<path d="M420 430 c0 -5 5 -10 10 -10 6 0 10 5 10 10 0 6 -4 10 -10 10 -5 0
-10 -4 -10 -10z"/>
<path d="M751 513 c-11 -10 -24 -32 -27 -50 -13 -65 74 -109 124 -63 67 63
-27 171 -97 113z"/>
<path d="M237 335 c-10 -7 -20 -22 -22 -34 -2 -12 -7 -26 -11 -33 -5 -7 -3 -8
6 -3 10 6 12 4 7 -7 -6 -18 29 -33 39 -17 3 5 10 9 17 9 6 0 2 -6 -8 -14 -11
-8 -24 -12 -30 -9 -5 3 -5 1 1 -6 8 -9 17 -8 37 2 15 8 24 17 20 20 -3 4 -1 7
5 7 20 0 13 -22 -8 -27 -11 -3 -20 -9 -20 -13 0 -5 9 -6 20 -3 11 3 20 9 20
14 0 5 7 9 15 9 8 0 15 5 15 11 0 5 -4 7 -10 4 -6 -4 -7 1 -3 11 4 12 3 15 -5
10 -8 -5 -10 -2 -6 9 6 14 8 14 19 -2 12 -16 13 -15 12 10 -2 21 -6 26 -21 21
-10 -4 -22 0 -27 7 -14 23 -10 34 5 13 8 -10 18 -16 21 -12 12 11 -18 33 -46
34 -14 1 -33 -4 -42 -11z m37 -11 c3 -8 2 -13 -3 -10 -4 3 -13 -6 -20 -21 -6
-14 -15 -23 -18 -19 -4 3 -1 12 5 18 19 19 14 32 -5 17 -16 -13 -17 -12 -4 3
7 10 17 15 22 12 5 -3 9 0 9 5 0 16 7 13 14 -5z m20 -30 c8 -3 12 -12 9 -20
-8 -20 -24 -17 -16 4 5 13 1 12 -16 -5 -29 -31 -46 -29 -18 1 27 29 23 27 41
20z"/>
<path d="M578 328 c-20 -20 -20 -25 -7 -50 6 -11 5 -19 -3 -24 -6 -4 -8 -3 -4
4 3 6 2 13 -3 16 -17 11 -6 -20 16 -43 18 -20 28 -22 58 -17 31 6 35 10 31 29
-3 12 -3 16 0 10 8 -18 27 -16 21 2 -4 8 -2 17 3 20 10 6 3 32 -13 53 -11 14
-37 -1 -37 -21 0 -7 4 -7 12 1 7 7 16 12 20 12 4 0 0 -8 -11 -19 -11 -11 -17
-29 -16 -44 2 -20 -1 -24 -13 -20 -10 4 -13 2 -8 -5 4 -7 2 -12 -3 -12 -13 0
-13 3 -5 24 3 9 10 14 14 11 4 -2 8 7 8 20 0 20 -3 23 -14 14 -8 -6 -14 -17
-14 -24 0 -7 -7 -16 -15 -19 -14 -5 -14 -4 0 16 19 29 20 44 0 28 -10 -9 -15
-9 -15 -1 0 6 5 11 11 11 5 0 7 6 3 13 -5 8 -2 7 9 -2 10 -8 21 -11 24 -7 4 4
1 12 -7 17 -12 8 -12 9 4 7 10 -2 21 2 23 7 6 18 -51 11 -69 -7z m106 -37 c3
-5 -1 -11 -9 -14 -9 -4 -12 -1 -8 9 6 16 10 17 17 5z"/>
<path d="M415 161 c-3 -5 -2 -12 3 -15 5 -3 9 1 9 9 0 17 -3 19 -12 6z"/>
<path d="M396 137 c3 -10 9 -15 12 -12 3 3 0 11 -7 18 -10 9 -11 8 -5 -6z"/>
<path d="M455 141 c-3 -5 0 -13 6 -17 7 -4 9 -3 5 4 -3 5 0 13 6 15 9 4 10 6
1 6 -6 1 -14 -3 -18 -8z"/>
<path d="M421 114 c0 -11 3 -14 6 -6 3 7 2 16 -1 19 -3 4 -6 -2 -5 -13z"/>
<path d="M446 107 c3 -10 9 -15 12 -12 3 3 0 11 -7 18 -10 9 -11 8 -5 -6z"/>
<path d="M396 83 c-6 -14 -5 -15 5 -6 7 7 10 15 7 18 -3 3 -9 -2 -12 -12z"/>
<path d="M470 91 c0 -6 5 -13 12 -17 6 -4 8 -3 4 4 -3 5 0 13 6 15 8 3 6 6 -4
6 -10 1 -18 -3 -18 -8z"/>
<path d="M425 71 c5 -18 4 -22 -5 -16 -8 5 -11 4 -6 -3 4 -6 13 -9 22 -5 14 5
13 9 -14 43 -3 3 -1 -6 3 -19z"/>
<path d="M480 50 c-9 -6 -10 -10 -3 -10 6 0 15 5 18 10 8 12 4 12 -15 0z"/>
</g>
</svg>
